<svg width="140" height="40" viewBox="0 0 140 40" xmlns="http://www.w3.org/2000/svg" xmlns:xlink="http://www.w3.org/1999/xlink">
  <path fill="url(#paint)" d="M0 0h140v40H0z"/>
  <path d="M36.62 16.95c.3 0 .55-.01.75-.03v.2c-.3333.08-.5967.37-.79.87l-2.35 6.06h-.16l-2.44-6.29c-.16-.4133-.39-.6267-.69-.64v-.2c.2667.02.6233.03 1.07.03.5733 0 1-.01 1.28-.03v.2c-.2533.0133-.4367.0467-.55.1-.1067.0467-.16.1367-.16.27 0 .1133.04.27.12.47l1.81 4.81 1.63-4.23c.1333-.36.2-.6333.2-.82 0-.2067-.0733-.3567-.22-.45-.14-.0933-.3567-.1433-.65-.15v-.2c.38.02.7633.03 1.15.03zm7.2228-.17c.6333 0 1.1867.1433 1.66.43.48.2867.85.7033 1.11 1.25.2667.54.4 1.1867.4 1.94 0 .7333-.1367 1.3833-.41 1.95-.2667.5667-.6433 1.0067-1.13 1.32-.48.3133-1.0267.47-1.64.47-.6333 0-1.19-.1433-1.67-.43-.4733-.2867-.8433-.7-1.11-1.24-.26-.5467-.39-1.1967-.39-1.95 0-.7333.1333-1.3833.4-1.95.2733-.5667.65-1.0067 1.13-1.32.4867-.3133 1.0367-.47 1.65-.47zm-.04.18c-.4267 0-.8033.15-1.13.45-.32.2933-.57.7067-.75 1.24-.1733.5333-.26 1.1433-.26 1.83 0 .6933.0967 1.3033.29 1.83.2.5267.4667.9333.8 1.22.3333.2867.7067.43 1.12.43.4267 0 .8-.1467 1.12-.44.3267-.3.5767-.7167.75-1.25.18-.5333.27-1.1433.27-1.83 0-.6933-.1-1.3033-.3-1.83-.1933-.5267-.4567-.9333-.79-1.22-.3333-.2867-.7067-.43-1.12-.43zm13.264 6.54c-.1533.2267-.3067.39-.46.49-.1533.1-.3567.15-.61.15-.2733 0-.5-.08-.68-.24-.1733-.16-.3033-.44-.39-.84l-.22-1c-.08-.3467-.1567-.6133-.23-.8-.0667-.1867-.17-.3367-.31-.45-.14-.1133-.3367-.17-.59-.17h-.95v2.3c0 .2533.02.4367.06.55.04.1133.1133.19.22.23.1133.04.29.0667.53.08v.2c-.3067-.02-.73-.03-1.27-.03-.5733 0-1 .01-1.28.03v-.2c.24-.0133.4133-.04.52-.08.1133-.04.19-.1167.23-.23.04-.1133.06-.2967.06-.55v-4.96c0-.2533-.02-.4367-.06-.55-.04-.1133-.1167-.19-.23-.23-.1067-.04-.28-.0667-.52-.08v-.2c.28.02.6867.03 1.22.03l1.08-.01c.1267-.0067.27-.01.43-.01.7733 0 1.3667.1633 1.78.49.42.32.63.7367.63 1.25 0 .26-.0633.5233-.19.79-.12.26-.3267.4967-.62.71-.2867.2067-.6633.3467-1.13.42l.12.02c.44.0733.76.2067.96.4.2.1933.3467.5.44.92l.25 1.02c.0667.3067.1367.52.21.64s.1733.18.3.18c.1133 0 .2067-.03.28-.09.08-.06.17-.1567.27-.29l.15.11zm-3.7-6.38c-.2067 0-.3633.0233-.47.07-.1.0467-.17.13-.21.25-.04.12-.06.3-.06.54v2.46h.67c.66 0 1.1133-.1467 1.36-.44.2467-.2933.37-.7.37-1.22 0-.5467-.13-.96-.39-1.24s-.6833-.42-1.27-.42zm10.2944-.34c.6333 0 1.1866.1433 1.66.43.48.2867.85.7033 1.11 1.25.2666.54.4 1.1867.4 1.94 0 .7333-.1367 1.3833-.41 1.95-.2667.5667-.6434 1.0067-1.13 1.32-.48.3133-1.0267.47-1.64.47-.6334 0-1.19-.1433-1.67-.43-.4734-.2867-.8434-.7-1.11-1.24-.26-.5467-.39-1.1967-.39-1.95 0-.7333.1333-1.3833.4-1.95.2733-.5667.65-1.0067 1.13-1.32.4866-.3133 1.0366-.47 1.65-.47zm-.04.18c-.4267 0-.8034.15-1.13.45-.32.2933-.57.7067-.75 1.24-.1734.5333-.26 1.1433-.26 1.83 0 .6933.0966 1.3033.29 1.83.2.5267.4666.9333.8 1.22.3333.2867.7066.43 1.12.43.4266 0 .8-.1467 1.12-.44.3266-.3.5766-.7167.75-1.25.18-.5333.27-1.1433.27-1.83 0-.6933-.1-1.3033-.3-1.83-.1934-.5267-.4567-.9333-.79-1.22-.3334-.2867-.7067-.43-1.12-.43zm13.364.16c-.2334.0133-.4067.05-.52.11-.1134.0533-.19.1467-.23.28-.04.1267-.06.3167-.06.57v5.97h-.23l-4.2-6.49v5.28c0 .26.02.4533.06.58.0466.1267.1333.22.26.28.1266.0533.3233.0867.59.1v.2c-.24-.02-.58-.03-1.02-.03-.4 0-.71.01-.93.03v-.2c.2333-.0133.4066-.0467.52-.1.1133-.06.19-.1533.23-.28.04-.1333.06-.3267.06-.58v-4.86c0-.2533-.02-.4367-.06-.55-.04-.1133-.1167-.19-.23-.23-.1067-.04-.28-.0667-.52-.08v-.2c.22.02.53.03.93.03.3 0 .56-.01.78-.03l3.53 5.44v-4.28c0-.26-.0234-.4533-.07-.58-.04-.1267-.1234-.2167-.25-.27-.1267-.06-.3234-.0967-.59-.11v-.2c.24.02.58.03 1.02.03.4 0 .71-.01.93-.03v.2zm6.3305 0c-.24.0133-.4167.04-.53.08-.1067.04-.18.1167-.22.23-.04.1133-.06.2967-.06.55v4.96c0 .2533.02.4367.06.55.04.1133.1133.19.22.23.1133.04.29.0667.53.08v.2c-.3067-.02-.73-.03-1.27-.03-.5733 0-1 .01-1.28.03v-.2c.24-.0133.4133-.04.52-.08.1133-.04.19-.1167.23-.23.04-.1133.06-.2967.06-.55v-4.96c0-.2533-.02-.4367-.06-.55-.04-.1133-.1167-.19-.23-.23-.1067-.04-.28-.0667-.52-.08v-.2c.28.02.7067.03 1.28.03.5333 0 .9567-.01 1.27-.03v.2zm10.1187 0c-.2334.0133-.4067.05-.52.11-.1134.0533-.19.1467-.23.28-.04.1267-.06.3167-.06.57v5.97h-.23l-4.2-6.49v5.28c0 .26.02.4533.06.58.0466.1267.1333.22.26.28.1266.0533.3233.0867.59.1v.2c-.24-.02-.58-.03-1.02-.03-.4 0-.71.01-.93.03v-.2c.2333-.0133.4066-.0467.52-.1.1133-.06.19-.1533.23-.28.04-.1333.06-.3267.06-.58v-4.86c0-.2533-.02-.4367-.06-.55-.04-.1133-.1167-.19-.23-.23-.1067-.04-.28-.0667-.52-.08v-.2c.22.02.53.03.93.03.3 0 .56-.01.78-.03l3.53 5.44v-4.28c0-.26-.0234-.4533-.07-.58-.04-.1267-.1234-.2167-.25-.27-.1267-.06-.3234-.0967-.59-.11v-.2c.24.02.58.03 1.02.03.4 0 .71-.01.93-.03v.2zm8.9716 6.04c.16.4133.39.6267.69.64v.2c-.266-.02-.623-.03-1.07-.03-.573 0-1 .01-1.28.03v-.2c.254-.0133.434-.0433.54-.09.114-.0533.17-.1467.17-.28 0-.1133-.04-.27-.12-.47l-.61-1.64h-2.4197l-.41 1.06c-.1333.36-.2.6333-.2.82 0 .2067.07.3567.21.45.1467.0933.3667.1433.66.15v.2c-.38-.02-.7633-.03-1.15-.03-.3 0-.55.01-.75.03v-.2c.3334-.08.5967-.37.79-.87l2.35-6.06h.16l2.4397 6.29zm-1.76-2.04l-1.1197-2.99-1.14 2.99h2.2597zm6.649 1.74c.173 0 .323.0633.45.19s.19.2767.19.45-.063.3233-.19.45c-.127.1267-.277.19-.45.19s-.323-.0633-.45-.19-.19-.2767-.19-.45.063-.3233.19-.45c.127-.1267.277-.19.45-.19z" fill="#fff"/>
  <defs>
    <linearGradient id="paint" x2="140" y2="40" gradientUnits="userSpaceOnUse">
      <stop stop-color="#709C54"/>
      <stop offset="1" stop-color="#8EB574"/>
    </linearGradient>
  </defs>
</svg>
