<svg width="140" height="40" viewBox="0 0 140 40" xmlns="http://www.w3.org/2000/svg"><path fill="url(#paint)" d="M0 0h140v40H0z"/><path d="M36.62 16.95c.3 0 .55-.01.75-.03v.2c-.333.08-.597.37-.79.87l-2.35 6.06h-.16l-2.44-6.29c-.16-.413-.39-.627-.69-.64v-.2c.267.02.623.03 1.07.03.573 0 1-.01 1.28-.03v.2c-.253.013-.437.047-.55.1-.107.047-.16.137-.16.27 0 .113.04.27.12.47l1.81 4.81 1.63-4.23c.133-.36.2-.633.2-.82 0-.207-.073-.357-.22-.45-.14-.093-.357-.143-.65-.15v-.2c.38.02.763.03 1.15.03zm7.223-.17c.633 0 1.186.143 1.66.43.48.287.85.703 1.11 1.25.266.54.4 1.187.4 1.94 0 .733-.137 1.383-.41 1.95a3.093 3.093 0 0 1-1.13 1.32c-.48.313-1.027.47-1.64.47-.634 0-1.19-.143-1.67-.43a2.911 2.911 0 0 1-1.11-1.24c-.26-.547-.39-1.197-.39-1.95 0-.733.133-1.383.4-1.95.273-.567.65-1.007 1.13-1.32a2.982 2.982 0 0 1 1.65-.47zm-.04.18c-.427 0-.803.15-1.13.45-.32.293-.57.707-.75 1.24-.174.533-.26 1.143-.26 1.83 0 .693.097 1.303.29 1.83.2.527.466.933.8 1.22.333.287.706.43 1.12.43.426 0 .8-.147 1.12-.44.326-.3.576-.717.75-1.25.18-.533.27-1.143.27-1.83 0-.693-.1-1.303-.3-1.83-.194-.527-.457-.933-.79-1.22a1.674 1.674 0 0 0-1.12-.43zm13.264 6.54c-.153.227-.307.39-.46.49-.153.1-.357.15-.61.15-.273 0-.5-.08-.68-.24-.173-.16-.303-.44-.39-.84l-.22-1a6.002 6.002 0 0 0-.23-.8.994.994 0 0 0-.31-.45c-.14-.113-.337-.17-.59-.17h-.95v2.3c0 .253.02.437.06.55a.36.36 0 0 0 .22.23c.113.04.29.067.53.08v.2c-.307-.02-.73-.03-1.27-.03-.574 0-1 .01-1.28.03v-.2c.24-.013.413-.04.52-.08a.36.36 0 0 0 .23-.23c.04-.113.06-.297.06-.55v-4.96c0-.253-.02-.437-.06-.55a.36.36 0 0 0-.23-.23c-.107-.04-.28-.067-.52-.08v-.2c.28.02.686.03 1.22.03l1.08-.01c.126-.007.27-.01.43-.01.773 0 1.366.163 1.78.49.42.32.63.737.63 1.25a1.83 1.83 0 0 1-.81 1.5c-.287.207-.663.347-1.13.42l.12.02c.44.073.76.207.96.4.2.193.346.5.44.92l.25 1.02c.066.307.136.52.21.64s.173.18.3.18a.43.43 0 0 0 .28-.09c.08-.06.17-.157.27-.29l.15.11zm-3.7-6.38c-.207 0-.363.023-.47.07a.4.4 0 0 0-.21.25c-.04.12-.06.3-.06.54v2.46h.67c.66 0 1.113-.147 1.36-.44.247-.293.37-.7.37-1.22 0-.547-.13-.96-.39-1.24s-.684-.42-1.27-.42zm10.294-.34c.633 0 1.187.143 1.66.43.48.287.85.703 1.11 1.25.267.54.4 1.187.4 1.94 0 .733-.137 1.383-.41 1.95a3.094 3.094 0 0 1-1.13 1.32c-.48.313-1.026.47-1.64.47-.633 0-1.19-.143-1.67-.43-.473-.287-.843-.7-1.11-1.24-.26-.547-.39-1.197-.39-1.95 0-.733.133-1.383.4-1.95.273-.567.65-1.007 1.13-1.32a2.982 2.982 0 0 1 1.65-.47zm-.04.18c-.427 0-.803.15-1.13.45-.32.293-.57.707-.75 1.24-.173.533-.26 1.143-.26 1.83 0 .693.097 1.303.29 1.83.2.527.467.933.8 1.22.333.287.707.43 1.12.43.427 0 .8-.147 1.12-.44.327-.3.577-.717.75-1.25.18-.533.27-1.143.27-1.83 0-.693-.1-1.303-.3-1.83-.193-.527-.457-.933-.79-1.22a1.674 1.674 0 0 0-1.12-.43zm13.364.16c-.233.013-.407.05-.52.11a.427.427 0 0 0-.23.28c-.04.127-.06.317-.06.57v5.97h-.23l-4.2-6.49v5.28c0 .26.02.453.06.58.047.127.133.22.26.28.127.053.323.087.59.1v.2c-.24-.02-.58-.03-1.02-.03-.4 0-.71.01-.93.03v-.2c.233-.013.407-.047.52-.1a.46.46 0 0 0 .23-.28c.04-.133.06-.327.06-.58v-4.86c0-.253-.02-.437-.06-.55a.36.36 0 0 0-.23-.23c-.107-.04-.28-.067-.52-.08v-.2c.22.02.53.03.93.03.3 0 .56-.01.78-.03l3.53 5.44v-4.28c0-.26-.023-.453-.07-.58a.42.42 0 0 0-.25-.27c-.126-.06-.323-.097-.59-.11v-.2c.24.02.58.03 1.02.03.4 0 .71-.01.93-.03v.2zm6.33 0c-.24.013-.416.04-.53.08a.36.36 0 0 0-.22.23c-.04.113-.06.297-.06.55v4.96c0 .253.02.437.06.55a.36.36 0 0 0 .22.23c.114.04.29.067.53.08v.2c-.306-.02-.73-.03-1.27-.03-.573 0-1 .01-1.28.03v-.2c.24-.013.414-.04.52-.08a.36.36 0 0 0 .23-.23c.04-.113.06-.297.06-.55v-4.96c0-.253-.02-.437-.06-.55a.36.36 0 0 0-.23-.23c-.106-.04-.28-.067-.52-.08v-.2c.28.02.707.03 1.28.03.534 0 .957-.01 1.27-.03v.2zm10.12 0c-.234.013-.407.05-.52.11a.427.427 0 0 0-.23.28c-.04.127-.06.317-.06.57v5.97h-.23l-4.2-6.49v5.28c0 .26.02.453.06.58.046.127.133.22.26.28.126.053.323.087.59.1v.2c-.24-.02-.58-.03-1.02-.03-.4 0-.71.01-.93.03v-.2c.233-.013.406-.047.52-.1a.46.46 0 0 0 .23-.28c.04-.133.06-.327.06-.58v-4.86c0-.253-.02-.437-.06-.55a.36.36 0 0 0-.23-.23c-.107-.04-.28-.067-.52-.08v-.2c.22.02.53.03.93.03.3 0 .56-.01.78-.03l3.53 5.44v-4.28c0-.26-.024-.453-.07-.58a.42.42 0 0 0-.25-.27c-.127-.06-.324-.097-.59-.11v-.2c.24.02.58.03 1.02.03.4 0 .71-.01.93-.03v.2zm8.971 6.04c.16.413.39.627.69.64v.2a15 15 0 0 0-1.07-.03c-.573 0-1 .01-1.28.03v-.2c.254-.013.434-.043.54-.09.114-.053.17-.147.17-.28 0-.113-.04-.27-.12-.47l-.61-1.64h-2.42l-.41 1.06c-.133.36-.2.633-.2.82 0 .207.07.357.21.45.147.093.367.143.66.15v.2c-.38-.02-.763-.03-1.15-.03-.3 0-.55.01-.75.03v-.2c.334-.08.597-.37.79-.87l2.35-6.06h.16l2.44 6.29zm-1.76-2.04l-1.12-2.99-1.14 2.99h2.26zm6.649 1.74c.173 0 .323.063.45.19s.19.277.19.45-.063.323-.19.45-.277.19-.45.19-.323-.063-.45-.19-.19-.277-.19-.45.063-.323.19-.45a.616.616 0 0 1 .45-.19z" fill="#fff"/><defs><linearGradient id="paint" x2="140" y2="40" gradientUnits="userSpaceOnUse"><stop stop-color="#709C54"/><stop offset="1" stop-color="#8EB574"/></linearGradient></defs></svg>